<svg width="44" height="45" viewBox="0 0 44 45" fill="none" xmlns="http://www.w3.org/2000/svg">
<path fill-rule="evenodd" clip-rule="evenodd" d="M22 40.9116C32.4934 40.9116 41 32.4233 41 21.9526C41 11.4818 32.4934 2.99353 22 2.99353C11.5066 2.99353 3 11.4818 3 21.9526C3 32.4233 11.5066 40.9116 22 40.9116ZM22 43.9051C34.1503 43.9051 44 34.0766 44 21.9526C44 9.82849 34.1503 0 22 0C9.84974 0 0 9.82849 0 21.9526C0 34.0766 9.84974 43.9051 22 43.9051Z" transform="translate(0 0.626953)" fill="#E0C675"/>
<path d="M0.319295 10.629H2.48929V19.635C2.48929 19.8128 2.6322 19.9569 2.80858 19.9569H6.48788C6.66426 19.9569 6.80718 19.8128 6.80718 19.635V10.6715H9.30177C9.46397 10.6715 9.60043 10.5487 9.61895 10.3863L9.99783 7.07078C10.0082 6.97956 9.97956 6.88821 9.91903 6.81978C9.85842 6.75128 9.7717 6.71207 9.68071 6.71207H6.80731V4.63373C6.80731 4.00721 7.14193 3.68951 7.80197 3.68951C7.89604 3.68951 9.68071 3.68951 9.68071 3.68951C9.85708 3.68951 10 3.54537 10 3.36762V0.324267C10 0.146458 9.85708 0.00238195 9.68071 0.00238195H7.09154C7.07328 0.00148067 7.03273 0 6.97296 0C6.52371 0 4.96216 0.0889046 3.72866 1.23288C2.36195 2.5006 2.55193 4.01848 2.59734 4.28165V6.71201H0.319295C0.142916 6.71201 0 6.85608 0 7.03389V10.3071C0 10.4849 0.142916 10.629 0.319295 10.629Z" transform="translate(17 12.601)" fill="#E0C675"/>
</svg>
