<svg width="39" height="40" viewBox="0 0 39 40" fill="none" xmlns="http://www.w3.org/2000/svg">
<path d="M26.4971 35.6941H26.4986L26.5196 35.6932C26.6107 35.6897 26.7026 35.6861 26.7964 35.6824L26.4971 35.6941Z" transform="translate(0 0.620361)" fill="#E0C675"/>
<path fill-rule="evenodd" clip-rule="evenodd" d="M11.3288 0.144341L11.3374 0.143976L11.346 0.143489C13.4271 0.000243614 14.0615 0 19.5 0C24.9385 0 25.5729 0.000243614 27.654 0.143489H27.6552C29.8017 0.286247 31.191 0.569692 32.3531 1.04718L32.3622 1.05071C33.6049 1.53282 34.7049 2.21872 35.7407 3.25237C36.8471 4.35643 37.4628 5.38095 37.947 6.62338C38.4342 7.87349 38.7849 9.2644 38.8554 11.3044L38.8557 11.313L38.8563 11.3215C38.9998 13.3982 39 14.1033 39 19.4579C39 23.8642 38.9509 25.1223 38.893 26.6051L38.8922 26.6262C38.8802 26.9319 38.868 27.2479 38.8557 27.6034C38.7124 29.7408 38.4285 31.1252 37.9506 32.2833L37.947 32.2925C37.4638 33.5324 36.7764 34.63 35.7407 35.6635C34.6342 36.7676 33.6074 37.382 32.3622 37.8652C31.1094 38.3513 29.7155 38.7013 27.6712 38.7715L27.6626 38.7719L27.654 38.7724C25.5729 38.9156 24.8661 38.9159 19.5 38.9159C15.0842 38.9159 13.8233 38.8669 12.3374 38.8092C12.0244 38.797 11.7015 38.7845 11.3369 38.7718C9.19492 38.6289 7.80753 38.3456 6.64694 37.8687L6.63776 37.8652C5.39514 37.3829 4.29514 36.6972 3.25934 35.6635C2.15292 34.5596 1.5372 33.5349 1.05295 32.2925C0.565765 31.0424 0.215118 29.6515 0.144623 27.6115L0.144348 27.6029L0.143738 27.5944C0.000213623 25.5177 0 24.8847 0 19.4579C0 15.0517 0.0491028 13.7936 0.106995 12.3108L0.107819 12.2897C0.119751 11.984 0.13205 11.668 0.144348 11.3125C0.287628 9.17512 0.571503 7.79066 1.04938 6.63264L1.05295 6.62338C1.53619 5.38351 2.22354 4.2859 3.25934 3.25237C4.36578 2.14831 5.39258 1.53392 6.63776 1.05071C7.89056 0.564576 9.28445 0.214624 11.3288 0.144341ZM31.4186 3.44616L31.4009 3.43934L31.3828 3.43398C31.3195 3.41498 31.2537 3.39488 31.1848 3.37381C30.4626 3.15273 29.4142 2.83177 27.57 2.76283C25.4576 2.61751 24.7818 2.61751 19.5226 2.61751H19.4774C14.2182 2.61751 13.5424 2.61751 11.43 2.76283C9.43185 2.83737 8.36176 3.13495 7.57825 3.44738C6.56879 3.83522 5.85883 4.3088 5.08847 5.07753C4.31732 5.84698 3.8425 6.55602 3.45361 7.56507L3.44681 7.58261L3.44138 7.60076C3.42319 7.6613 3.40387 7.72415 3.38373 7.78968L3.38107 7.79833C3.15948 8.51906 2.83789 9.56514 2.76877 11.4054C2.6232 13.5133 2.6232 14.1875 2.6232 19.4354V19.4579C2.6232 23.7801 2.67181 25.0098 2.72913 26.4594C2.74194 26.7833 2.75519 27.1184 2.7684 27.5012L2.76846 27.5026C2.84265 29.5015 3.14133 30.5711 3.45483 31.354C3.84351 32.3613 4.31812 33.0698 5.08847 33.8384C5.85962 34.6078 6.57025 35.0816 7.58139 35.4697L7.59906 35.4765L7.61719 35.4819C7.68048 35.5009 7.74634 35.521 7.81516 35.5421C8.53745 35.7632 9.58578 36.0841 11.4301 36.1531C13.5424 36.2984 14.2182 36.2984 19.4769 36.2984H19.5C23.8316 36.2984 25.0639 36.2499 26.5166 36.1926C26.8413 36.1799 27.177 36.1667 27.5607 36.1534H27.562C29.5651 36.0794 30.637 35.7814 31.4215 35.4686C32.4311 35.0808 33.1411 34.6071 33.9115 33.8384C34.6827 33.0689 35.1575 32.3599 35.5464 31.3508L35.5532 31.3333L35.5586 31.3151C35.5768 31.2546 35.5961 31.1917 35.6163 31.1262L35.6189 31.1176C35.8405 30.3968 36.1621 29.3507 36.2312 27.5105C36.3768 25.4027 36.3768 24.7284 36.3768 19.481V19.4579C36.3768 15.1357 36.3282 13.9061 36.2709 12.4565C36.2581 12.1325 36.2448 11.7975 36.2316 11.4147L36.2315 11.4133C36.1573 9.41459 35.8587 8.345 35.5453 7.56215C35.1566 6.55468 34.6819 5.84625 33.9115 5.07753C33.1404 4.30807 32.4297 3.83424 31.4186 3.44616Z" transform="translate(0 0.620361)" fill="#E0C675"/>
<path fill-rule="evenodd" clip-rule="evenodd" d="M9.78259 19.3855C9.78259 14.021 14.124 9.68902 19.5 9.68902C24.876 9.68902 29.2174 14.021 29.2174 19.3855C29.2174 24.7499 24.876 29.0819 19.5 29.0819C14.124 29.0819 9.78259 24.7499 9.78259 19.3855ZM12.3333 19.3855C12.3333 23.3487 15.5282 26.5366 19.5 26.5366C23.4718 26.5366 26.6667 23.3487 26.6667 19.3855C26.6667 15.4222 23.4718 12.2343 19.5 12.2343C15.5282 12.2343 12.3333 15.4222 12.3333 19.3855Z" transform="translate(0 0.620361)" fill="#E0C675"/>
<path d="M30.1522 11.1426C31.4729 11.1426 32.5435 10.0742 32.5435 8.75641C32.5435 7.43858 31.4729 6.37026 30.1522 6.37026C28.8315 6.37026 27.7609 7.43858 27.7609 8.75641C27.7609 10.0742 28.8315 11.1426 30.1522 11.1426Z" transform="translate(0 0.620361)" fill="#E0C675"/>
</svg>
