<svg width="44" height="45" viewBox="0 0 44 45" fill="none" xmlns="http://www.w3.org/2000/svg">
<path d="M23.8727 12.6163C23.8437 12.5524 23.8166 12.4994 23.7914 12.4569C23.375 11.6918 22.5793 10.7527 21.4047 9.63931L21.3799 9.61381L21.3675 9.60131L21.3549 9.58849H21.3423C20.8092 9.07004 20.4716 8.72145 20.3303 8.54298C20.0716 8.203 20.0137 7.85887 20.155 7.51019C20.2549 7.24674 20.6301 6.69039 21.2797 5.84036C21.6213 5.38987 21.892 5.02882 22.0918 4.7568C23.5331 2.80195 24.1579 1.55278 23.9662 1.00879L23.8918 0.881672C23.8418 0.805139 23.7127 0.735125 23.5046 0.671274C23.2961 0.607556 23.0296 0.597019 22.7047 0.639482L19.106 0.664844C19.0477 0.643769 18.9644 0.645733 18.856 0.671274C18.7477 0.696814 18.6935 0.70963 18.6935 0.70963L18.6308 0.741556L18.5811 0.779911C18.5395 0.805273 18.4936 0.84988 18.4436 0.913643C18.3938 0.977182 18.3522 1.05175 18.319 1.13672C17.9272 2.16509 17.4817 3.12121 16.9817 4.00504C16.6735 4.53207 16.3904 4.98881 16.1319 5.37553C15.8737 5.76213 15.6571 6.04696 15.4823 6.22954C15.3072 6.4123 15.1492 6.55871 15.0073 6.66931C14.8657 6.77996 14.7575 6.82671 14.6826 6.80961C14.6076 6.7925 14.5369 6.77554 14.47 6.75857C14.3534 6.68204 14.2597 6.57795 14.189 6.44623C14.118 6.31451 14.0702 6.14872 14.0452 5.94899C14.0203 5.74913 14.0056 5.57723 14.0014 5.43269C13.9975 5.28833 13.9993 5.08414 14.0078 4.82069C14.0164 4.55712 14.0203 4.37878 14.0203 4.28528C14.0203 3.96227 14.0265 3.61171 14.0389 3.23351C14.0515 2.85531 14.0617 2.55566 14.0702 2.3349C14.0787 2.11392 14.0827 1.88012 14.0827 1.63365C14.0827 1.38717 14.068 1.19387 14.0389 1.05358C14.0102 0.913463 13.9661 0.777455 13.908 0.645599C13.8496 0.513877 13.7641 0.411983 13.6519 0.339647C13.5394 0.267401 13.3996 0.210069 13.2333 0.167471C12.7917 0.0655316 12.2294 0.010387 11.5462 0.00181391C9.99681 -0.0151537 9.00124 0.0869195 8.55972 0.3079C8.38478 0.401266 8.22648 0.528835 8.08493 0.690206C7.93494 0.877251 7.91402 0.979325 8.0223 0.996114C8.52221 1.07251 8.87611 1.25527 9.0844 1.54421L9.15946 1.69732C9.21784 1.80779 9.27614 2.00336 9.33448 2.28377C9.39273 2.56419 9.43033 2.87438 9.44687 3.21418C9.48845 3.8347 9.48845 4.36587 9.44687 4.80775C9.40516 5.2498 9.36577 5.59392 9.32818 5.8404C9.29058 6.08688 9.23439 6.2866 9.15946 6.43953C9.0844 6.59251 9.03446 6.68601 9.00942 6.71995C8.98443 6.75388 8.9636 6.77527 8.94706 6.78366C8.83878 6.82599 8.72616 6.84756 8.60961 6.84756C8.49289 6.84756 8.35134 6.78799 8.18477 6.66895C8.01823 6.54991 7.8454 6.3864 7.66626 6.17814C7.48712 5.96985 7.28509 5.67876 7.06009 5.30485C6.83526 4.93094 6.60198 4.48902 6.36039 3.9791L6.1605 3.6093C6.03555 3.3714 5.86486 3.02499 5.64825 2.57039C5.43152 2.11562 5.23995 1.67571 5.07342 1.25076C5.00685 1.07229 4.90684 0.936415 4.77357 0.842915L4.71103 0.804559C4.66945 0.770623 4.60271 0.73459 4.51115 0.696189C4.41945 0.657834 4.32378 0.630328 4.22373 0.613405L0.799884 0.638768C0.450012 0.638768 0.21262 0.719631 0.0876214 0.881136L0.0375958 0.957534C0.0126049 1.00009 0 1.06805 0 1.16159C0 1.25509 0.0249909 1.36985 0.0750165 1.50572C0.574835 2.70417 1.11838 3.85997 1.70564 4.97331C2.29291 6.08665 2.80323 6.98348 3.2363 7.66299C3.66946 8.34298 4.11098 8.98476 4.56086 9.588C5.01074 10.1915 5.30853 10.5782 5.45424 10.7481C5.60011 10.9183 5.71469 11.0456 5.79798 11.1305L6.11043 11.4364C6.31036 11.6405 6.60395 11.8848 6.99133 12.1694C7.3788 12.4543 7.80776 12.7347 8.27843 13.0111C8.74919 13.2871 9.29684 13.5123 9.9217 13.6865C10.5465 13.8609 11.1546 13.9309 11.7461 13.8971H13.1831C13.4746 13.8714 13.6954 13.7779 13.8455 13.6166L13.8952 13.5527C13.9286 13.5019 13.9599 13.4231 13.9888 13.3171C14.018 13.2108 14.0326 13.0938 14.0326 12.9665C14.024 12.6011 14.0513 12.2718 14.1136 11.9786C14.1759 11.6856 14.2469 11.4646 14.3263 11.3157C14.4056 11.1671 14.4952 11.0416 14.5948 10.9399C14.6947 10.8379 14.7659 10.7762 14.8076 10.7549C14.8491 10.7335 14.8822 10.719 14.9072 10.7103C15.1072 10.6424 15.3425 10.7082 15.6135 10.9081C15.8842 11.1078 16.1382 11.3544 16.3758 11.6475C16.6132 11.9409 16.8985 12.27 17.2317 12.6354C17.565 13.0009 17.8565 13.2726 18.1063 13.4513L18.3562 13.6043C18.523 13.7064 18.7396 13.7999 19.0062 13.8849C19.2724 13.9698 19.5056 13.991 19.7058 13.9486L22.9046 13.8977C23.221 13.8977 23.4672 13.8442 23.6418 13.7382C23.8168 13.632 23.9207 13.5149 23.9543 13.3876C23.9877 13.2602 23.9895 13.1156 23.9606 12.954C23.931 12.7927 23.9018 12.68 23.8727 12.6163Z" transform="translate(10 15.5945)" fill="#E0C675"/>
<path fill-rule="evenodd" clip-rule="evenodd" d="M22 40.9116C32.4934 40.9116 41 32.4233 41 21.9526C41 11.4818 32.4934 2.99353 22 2.99353C11.5066 2.99353 3 11.4818 3 21.9526C3 32.4233 11.5066 40.9116 22 40.9116ZM22 43.9051C34.1503 43.9051 44 34.0766 44 21.9526C44 9.82849 34.1503 0 22 0C9.84974 0 0 9.82849 0 21.9526C0 34.0766 9.84974 43.9051 22 43.9051Z" transform="translate(0 0.626953)" fill="#E0C675"/>
</svg>
